<svg width="50" height="28" viewBox="0 0 50 28" fill="none" xmlns="http://www.w3.org/2000/svg">
<g clip-path="url(#clip0_4_11352)">
<circle cx="40" cy="14" r="10" fill="#141718"/>
<path d="M36.9281 18V16.6705L40.0346 13.794C40.2988 13.5384 40.5204 13.3082 40.6994 13.1037C40.8812 12.8991 41.019 12.6989 41.1127 12.5028C41.2065 12.304 41.2534 12.0895 41.2534 11.8594C41.2534 11.6037 41.1951 11.3835 41.0787 11.1989C40.9622 11.0114 40.8031 10.8679 40.6014 10.7685C40.3997 10.6662 40.171 10.6151 39.9153 10.6151C39.6483 10.6151 39.4153 10.669 39.2164 10.777C39.0176 10.8849 38.8642 11.0398 38.7562 11.2415C38.6483 11.4432 38.5943 11.6832 38.5943 11.9616H36.8429C36.8429 11.3906 36.9721 10.8949 37.2306 10.4744C37.4892 10.054 37.8514 9.72869 38.3173 9.49858C38.7832 9.26847 39.3201 9.15341 39.9281 9.15341C40.5531 9.15341 41.0971 9.2642 41.5602 9.4858C42.0261 9.70455 42.3883 10.0085 42.6468 10.3977C42.9054 10.7869 43.0346 11.233 43.0346 11.7358C43.0346 12.0653 42.9693 12.3906 42.8386 12.7116C42.7108 13.0327 42.4821 13.3892 42.1525 13.7812C41.823 14.1705 41.3585 14.6378 40.7591 15.1832L39.4849 16.4318V16.4915H43.1497V18H36.9281Z" fill="white"/>
</g>
<path d="M10 8L10 9C10 10.6569 11.3431 12 13 12C14.6569 12 16 10.6569 16 9V8" stroke="#141718" stroke-width="1.5" stroke-linecap="round" stroke-linejoin="round"/>
<path d="M16.6116 5H9.3886C7.43325 5 5.76449 6.41365 5.44303 8.3424L3.77636 18.3424C3.37001 20.7805 5.25018 23 7.72194 23H18.2783C20.75 23 22.6302 20.7805 22.2238 18.3424L20.5572 8.3424C20.2357 6.41365 18.5669 5 16.6116 5Z" stroke="#141718" stroke-width="1.5" stroke-linejoin="round"/>
<defs>
<clipPath id="clip0_4_11352">
<rect width="20" height="20" fill="white" transform="translate(30 4)"/>
</clipPath>
</defs>
</svg>
